<svg width="1512" height="982" viewBox="0 0 1512 982" fill="none" xmlns="http://www.w3.org/2000/svg">
<g filter="url(#filter0_f_40_785)">
<path d="M726.048 426.059C741.406 480.837 747.379 584.976 748.446 630.198C748.446 638.731 749.214 664.499 752.285 699.312C755.357 734.124 759.111 713.817 760.604 699.312L765.084 630.198C765.51 585.829 769.947 483.653 784.282 429.898C788.89 358.737 829.717 334.548 849.555 331.348C869.18 327.082 912.525 318.037 928.908 315.99C949.386 313.43 953.225 321.749 959.625 348.626C964.744 377.424 958.345 424.779 957.065 436.298C955.785 447.816 939.147 517.57 962.824 457.416C983.942 394.062 994.181 335.828 996.101 315.99C997.637 300.119 1008.69 292.739 1014.02 291.032L1040.26 278.873C1054.34 271.194 1076.73 271.834 1079.29 373.584C1081.85 475.334 1063.93 510.53 1063.93 511.81C1063.93 513.09 1054.34 548.926 1079.29 492.612C1106.81 405.581 1117.69 328.148 1116.41 286.553C1115.13 244.957 1120.25 241.117 1124.73 235.998C1128.31 231.902 1142.86 219.786 1149.69 214.24C1152.25 212.747 1159.67 214.112 1168.88 231.518C1184.24 254.556 1200.88 291.032 1206 373.584C1216.24 474.054 1198.32 536.768 1191.92 548.926C1185.52 561.085 1186.8 568.764 1195.76 554.686C1202.93 543.423 1210.69 522.689 1213.68 513.73C1264.87 284.633 1213.04 128.488 1205.36 110.57C1197.68 92.6518 1191.92 90.0921 1182.32 110.57C1136.25 197.089 1040.68 242.184 998.661 253.916C956.852 266.928 866.194 292.952 838.037 292.952C802.84 292.952 793.241 292.952 778.523 271.194C766.748 253.788 790.681 237.491 804.12 231.518C807.746 228.958 812.823 223.071 804.12 219.999C781.082 219.999 765.724 207.84 763.164 195.042C756.125 150.246 750.365 185.443 749.085 195.042C747.806 204.641 735.647 216.799 712.609 219.999C694.179 222.559 706.21 231.305 714.529 235.358C724.341 238.557 741.918 250.204 733.727 271.194C725.536 292.184 697.891 294.445 685.092 292.952C650.962 288.899 569.775 275.418 518.068 253.916C415.678 227.038 353.605 157.285 329.927 110.57C315.593 69.6141 299.637 124.649 293.451 157.285C248.016 399.821 304.33 532.288 315.849 552.766C327.368 573.244 325.448 556.606 322.248 552.126C319.049 547.647 310.73 523.969 306.25 475.334C296.011 272.474 346.566 224.479 353.605 217.439C359.237 211.808 364.911 215.093 367.044 217.439C371.737 221.066 382.146 229.726 386.242 235.358C391.361 242.397 396.481 243.677 396.481 267.994C392.001 381.903 431.038 488.772 442.556 513.73C451.771 533.696 449.809 519.489 447.675 509.89C416.319 369.104 443.836 295.512 451.515 280.793C457.658 269.018 484.792 282.286 497.59 290.392C501.857 289.752 511.925 294.616 518.068 319.189C518.068 353.746 548.145 460.615 556.465 475.334C563.12 487.109 561.797 475.121 560.304 467.655C559.238 465.948 555.825 448.328 550.705 391.502C547.122 332.116 562.864 316.843 571.183 316.63C583.342 311.51 661.414 327.991 679.333 337.108C691.491 343.294 717.857 369.744 726.048 426.059Z" fill="#4A5764"/>
<circle cx="756.125" cy="235.998" r="7.0393" fill="black"/>
</g>
<path d="M452.832 806.384C450.304 806.384 447.856 806 445.488 805.232C443.152 804.432 441.312 803.408 439.968 802.16L441.744 798.416C443.024 799.568 444.656 800.512 446.64 801.248C448.656 801.952 450.72 802.304 452.832 802.304C455.616 802.304 457.696 801.84 459.072 800.912C460.448 799.952 461.136 798.688 461.136 797.12C461.136 795.968 460.752 795.04 459.984 794.336C459.248 793.6 458.32 793.04 457.2 792.656C456.112 792.272 454.56 791.84 452.544 791.36C450.016 790.752 447.968 790.144 446.4 789.536C444.864 788.928 443.536 788 442.416 786.752C441.328 785.472 440.784 783.76 440.784 781.616C440.784 779.824 441.248 778.208 442.176 776.768C443.136 775.328 444.576 774.176 446.496 773.312C448.416 772.448 450.8 772.016 453.648 772.016C455.632 772.016 457.584 772.272 459.504 772.784C461.424 773.296 463.072 774.032 464.448 774.992L462.864 778.832C461.456 777.936 459.952 777.264 458.352 776.816C456.752 776.336 455.184 776.096 453.648 776.096C450.928 776.096 448.88 776.592 447.504 777.584C446.16 778.576 445.488 779.856 445.488 781.424C445.488 782.576 445.872 783.52 446.64 784.256C447.408 784.96 448.352 785.52 449.472 785.936C450.624 786.32 452.176 786.736 454.128 787.184C456.656 787.792 458.688 788.4 460.224 789.008C461.76 789.616 463.072 790.544 464.16 791.792C465.28 793.04 465.84 794.72 465.84 796.832C465.84 798.592 465.36 800.208 464.4 801.68C463.44 803.12 461.984 804.272 460.032 805.136C458.08 805.968 455.68 806.384 452.832 806.384ZM509.957 772.4C514.309 772.4 517.733 773.44 520.229 775.52C522.725 777.6 523.973 780.464 523.973 784.112C523.973 787.76 522.725 790.624 520.229 792.704C517.733 794.784 514.309 795.824 509.957 795.824H501.653V806H496.853V772.4H509.957ZM509.813 791.648C512.853 791.648 515.173 791.008 516.773 789.728C518.373 788.416 519.173 786.544 519.173 784.112C519.173 781.68 518.373 779.824 516.773 778.544C515.173 777.232 512.853 776.576 509.813 776.576H501.653V791.648H509.813ZM579.408 801.824V806H555.024V772.4H578.736V776.576H559.824V786.896H576.672V790.976H559.824V801.824H579.408ZM626.064 806.384C622.704 806.384 619.664 805.648 616.944 804.176C614.256 802.672 612.144 800.624 610.608 798.032C609.072 795.408 608.304 792.464 608.304 789.2C608.304 785.936 609.072 783.008 610.608 780.416C612.144 777.792 614.272 775.744 616.992 774.272C619.712 772.768 622.752 772.016 626.112 772.016C628.736 772.016 631.136 772.464 633.312 773.36C635.488 774.224 637.344 775.52 638.88 777.248L635.76 780.272C633.232 777.616 630.08 776.288 626.304 776.288C623.808 776.288 621.552 776.848 619.536 777.968C617.52 779.088 615.936 780.64 614.784 782.624C613.664 784.576 613.104 786.768 613.104 789.2C613.104 791.632 613.664 793.84 614.784 795.824C615.936 797.776 617.52 799.312 619.536 800.432C621.552 801.552 623.808 802.112 626.304 802.112C630.048 802.112 633.2 800.768 635.76 798.08L638.88 801.104C637.344 802.832 635.472 804.144 633.264 805.04C631.088 805.936 628.688 806.384 626.064 806.384ZM676.025 776.576H664.505V772.4H692.297V776.576H680.777V806H676.025V776.576ZM743.988 806L736.74 795.68C735.844 795.744 735.14 795.776 734.628 795.776H726.324V806H721.524V772.4H734.628C738.98 772.4 742.404 773.44 744.9 775.52C747.396 777.6 748.644 780.464 748.644 784.112C748.644 786.704 748.004 788.912 746.724 790.736C745.444 792.56 743.62 793.888 741.252 794.72L749.22 806H743.988ZM734.484 791.696C737.524 791.696 739.844 791.04 741.444 789.728C743.044 788.416 743.844 786.544 743.844 784.112C743.844 781.68 743.044 779.824 741.444 778.544C739.844 777.232 737.524 776.576 734.484 776.576H726.324V791.696H734.484ZM804.783 801.824V806H780.399V772.4H804.111V776.576H785.199V786.896H802.047V790.976H785.199V801.824H804.783ZM873.446 772.4H887.606C891.158 772.4 894.31 773.104 897.062 774.512C899.814 775.92 901.942 777.904 903.446 780.464C904.982 782.992 905.75 785.904 905.75 789.2C905.75 792.496 904.982 795.424 903.446 797.984C901.942 800.512 899.814 802.48 897.062 803.888C894.31 805.296 891.158 806 887.606 806H873.446V772.4ZM887.318 801.824C890.038 801.824 892.422 801.296 894.47 800.24C896.55 799.184 898.15 797.712 899.27 795.824C900.39 793.904 900.95 791.696 900.95 789.2C900.95 786.704 900.39 784.512 899.27 782.624C898.15 780.704 896.55 779.216 894.47 778.16C892.422 777.104 890.038 776.576 887.318 776.576H878.246V801.824H887.318ZM961.487 801.824V806H937.103V772.4H960.815V776.576H941.903V786.896H958.751V790.976H941.903V801.824H961.487ZM1021.97 772.4L1007.24 806H1002.49L987.702 772.4H992.886L1004.98 800L1017.17 772.4H1021.97ZM1060.05 806.384C1057.52 806.384 1055.07 806 1052.71 805.232C1050.37 804.432 1048.53 803.408 1047.19 802.16L1048.96 798.416C1050.24 799.568 1051.87 800.512 1053.86 801.248C1055.87 801.952 1057.94 802.304 1060.05 802.304C1062.83 802.304 1064.91 801.84 1066.29 800.912C1067.67 799.952 1068.35 798.688 1068.35 797.12C1068.35 795.968 1067.97 795.04 1067.2 794.336C1066.47 793.6 1065.54 793.04 1064.42 792.656C1063.33 792.272 1061.78 791.84 1059.76 791.36C1057.23 790.752 1055.19 790.144 1053.62 789.536C1052.08 788.928 1050.75 788 1049.63 786.752C1048.55 785.472 1048 783.76 1048 781.616C1048 779.824 1048.47 778.208 1049.39 776.768C1050.35 775.328 1051.79 774.176 1053.71 773.312C1055.63 772.448 1058.02 772.016 1060.87 772.016C1062.85 772.016 1064.8 772.272 1066.72 772.784C1068.64 773.296 1070.29 774.032 1071.67 774.992L1070.08 778.832C1068.67 777.936 1067.17 777.264 1065.57 776.816C1063.97 776.336 1062.4 776.096 1060.87 776.096C1058.15 776.096 1056.1 776.592 1054.72 777.584C1053.38 778.576 1052.71 779.856 1052.71 781.424C1052.71 782.576 1053.09 783.52 1053.86 784.256C1054.63 784.96 1055.57 785.52 1056.69 785.936C1057.84 786.32 1059.39 786.736 1061.35 787.184C1063.87 787.792 1065.91 788.4 1067.44 789.008C1068.98 789.616 1070.29 790.544 1071.38 791.792C1072.5 793.04 1073.06 794.72 1073.06 796.832C1073.06 798.592 1072.58 800.208 1071.62 801.68C1070.66 803.12 1069.2 804.272 1067.25 805.136C1065.3 805.968 1062.9 806.384 1060.05 806.384Z" fill="#4A5764"/>
<path d="M631.048 877.288C628.528 877.288 626.248 876.736 624.208 875.632C622.192 874.504 620.608 872.968 619.456 871.024C618.304 869.056 617.728 866.848 617.728 864.4C617.728 861.952 618.304 859.756 619.456 857.812C620.608 855.844 622.204 854.308 624.244 853.204C626.284 852.076 628.564 851.512 631.084 851.512C633.052 851.512 634.852 851.848 636.484 852.52C638.116 853.168 639.508 854.14 640.66 855.436L638.32 857.704C636.424 855.712 634.06 854.716 631.228 854.716C629.356 854.716 627.664 855.136 626.152 855.976C624.64 856.816 623.452 857.98 622.588 859.468C621.748 860.932 621.328 862.576 621.328 864.4C621.328 866.224 621.748 867.88 622.588 869.368C623.452 870.832 624.64 871.984 626.152 872.824C627.664 873.664 629.356 874.084 631.228 874.084C634.036 874.084 636.4 873.076 638.32 871.06L640.66 873.328C639.508 874.624 638.104 875.608 636.448 876.28C634.816 876.952 633.016 877.288 631.048 877.288ZM656.644 877.288C654.1 877.288 651.808 876.736 649.768 875.632C647.728 874.504 646.12 872.956 644.944 870.988C643.792 869.02 643.216 866.824 643.216 864.4C643.216 861.976 643.792 859.78 644.944 857.812C646.12 855.844 647.728 854.308 649.768 853.204C651.808 852.076 654.1 851.512 656.644 851.512C659.164 851.512 661.444 852.076 663.484 853.204C665.524 854.308 667.12 855.844 668.272 857.812C669.424 859.756 670 861.952 670 864.4C670 866.848 669.424 869.056 668.272 871.024C667.12 872.968 665.524 874.504 663.484 875.632C661.444 876.736 659.164 877.288 656.644 877.288ZM656.644 874.084C658.492 874.084 660.148 873.664 661.612 872.824C663.1 871.984 664.264 870.832 665.104 869.368C665.968 867.88 666.4 866.224 666.4 864.4C666.4 862.576 665.968 860.932 665.104 859.468C664.264 857.98 663.1 856.816 661.612 855.976C660.148 855.136 658.492 854.716 656.644 854.716C654.796 854.716 653.116 855.136 651.604 855.976C650.116 856.816 648.94 857.98 648.076 859.468C647.236 860.932 646.816 862.576 646.816 864.4C646.816 866.224 647.236 867.88 648.076 869.368C648.94 870.832 650.116 871.984 651.604 872.824C653.116 873.664 654.796 874.084 656.644 874.084ZM698.867 877L698.831 858.64L689.723 873.94H688.067L678.959 858.748V877H675.503V851.8H678.455L688.967 869.512L699.335 851.8H702.287L702.323 877H698.867ZM709.885 851.8H713.485V877H709.885V851.8ZM742.702 851.8V877H739.75L724.63 858.208V877H721.03V851.8H723.982L739.102 870.592V851.8H742.702ZM767.705 864.256H771.161V874.084C769.913 875.116 768.461 875.908 766.805 876.46C765.149 877.012 763.421 877.288 761.621 877.288C759.077 877.288 756.785 876.736 754.745 875.632C752.705 874.504 751.097 872.968 749.921 871.024C748.769 869.056 748.193 866.848 748.193 864.4C748.193 861.952 748.769 859.744 749.921 857.776C751.097 855.808 752.705 854.272 754.745 853.168C756.809 852.064 759.125 851.512 761.693 851.512C763.709 851.512 765.533 851.848 767.165 852.52C768.821 853.168 770.225 854.128 771.377 855.4L769.145 857.632C767.129 855.688 764.693 854.716 761.837 854.716C759.917 854.716 758.189 855.136 756.653 855.976C755.141 856.792 753.953 857.944 753.089 859.432C752.225 860.896 751.793 862.552 751.793 864.4C751.793 866.224 752.225 867.88 753.089 869.368C753.953 870.832 755.141 871.984 756.653 872.824C758.189 873.664 759.905 874.084 761.801 874.084C764.057 874.084 766.025 873.544 767.705 872.464V864.256ZM795.065 877.288C793.169 877.288 791.333 877 789.557 876.424C787.805 875.824 786.425 875.056 785.417 874.12L786.749 871.312C787.709 872.176 788.933 872.884 790.421 873.436C791.933 873.964 793.481 874.228 795.065 874.228C797.153 874.228 798.713 873.88 799.745 873.184C800.777 872.464 801.293 871.516 801.293 870.34C801.293 869.476 801.005 868.78 800.429 868.252C799.877 867.7 799.181 867.28 798.341 866.992C797.525 866.704 796.361 866.38 794.849 866.02C792.953 865.564 791.417 865.108 790.241 864.652C789.089 864.196 788.093 863.5 787.253 862.564C786.437 861.604 786.029 860.32 786.029 858.712C786.029 857.368 786.377 856.156 787.073 855.076C787.793 853.996 788.873 853.132 790.313 852.484C791.753 851.836 793.541 851.512 795.677 851.512C797.165 851.512 798.629 851.704 800.069 852.088C801.509 852.472 802.745 853.024 803.777 853.744L802.589 856.624C801.533 855.952 800.405 855.448 799.205 855.112C798.005 854.752 796.829 854.572 795.677 854.572C793.637 854.572 792.101 854.944 791.069 855.688C790.061 856.432 789.557 857.392 789.557 858.568C789.557 859.432 789.845 860.14 790.421 860.692C790.997 861.22 791.705 861.64 792.545 861.952C793.409 862.24 794.573 862.552 796.037 862.888C797.933 863.344 799.457 863.8 800.609 864.256C801.761 864.712 802.745 865.408 803.561 866.344C804.401 867.28 804.821 868.54 804.821 870.124C804.821 871.444 804.461 872.656 803.741 873.76C803.021 874.84 801.929 875.704 800.465 876.352C799.001 876.976 797.201 877.288 795.065 877.288ZM821.457 877.288C818.913 877.288 816.621 876.736 814.581 875.632C812.541 874.504 810.933 872.956 809.757 870.988C808.605 869.02 808.029 866.824 808.029 864.4C808.029 861.976 808.605 859.78 809.757 857.812C810.933 855.844 812.541 854.308 814.581 853.204C816.621 852.076 818.913 851.512 821.457 851.512C823.977 851.512 826.257 852.076 828.297 853.204C830.337 854.308 831.933 855.844 833.085 857.812C834.237 859.756 834.813 861.952 834.813 864.4C834.813 866.848 834.237 869.056 833.085 871.024C831.933 872.968 830.337 874.504 828.297 875.632C826.257 876.736 823.977 877.288 821.457 877.288ZM821.457 874.084C823.305 874.084 824.961 873.664 826.425 872.824C827.913 871.984 829.077 870.832 829.917 869.368C830.781 867.88 831.213 866.224 831.213 864.4C831.213 862.576 830.781 860.932 829.917 859.468C829.077 857.98 827.913 856.816 826.425 855.976C824.961 855.136 823.305 854.716 821.457 854.716C819.609 854.716 817.929 855.136 816.417 855.976C814.929 856.816 813.753 857.98 812.889 859.468C812.049 860.932 811.629 862.576 811.629 864.4C811.629 866.224 812.049 867.88 812.889 869.368C813.753 870.832 814.929 871.984 816.417 872.824C817.929 873.664 819.609 874.084 821.457 874.084ZM851.691 877.288C849.147 877.288 846.855 876.736 844.815 875.632C842.775 874.504 841.167 872.956 839.991 870.988C838.839 869.02 838.263 866.824 838.263 864.4C838.263 861.976 838.839 859.78 839.991 857.812C841.167 855.844 842.775 854.308 844.815 853.204C846.855 852.076 849.147 851.512 851.691 851.512C854.211 851.512 856.491 852.076 858.531 853.204C860.571 854.308 862.167 855.844 863.319 857.812C864.471 859.756 865.047 861.952 865.047 864.4C865.047 866.848 864.471 869.056 863.319 871.024C862.167 872.968 860.571 874.504 858.531 875.632C856.491 876.736 854.211 877.288 851.691 877.288ZM851.691 874.084C853.539 874.084 855.195 873.664 856.659 872.824C858.147 871.984 859.311 870.832 860.151 869.368C861.015 867.88 861.447 866.224 861.447 864.4C861.447 862.576 861.015 860.932 860.151 859.468C859.311 857.98 858.147 856.816 856.659 855.976C855.195 855.136 853.539 854.716 851.691 854.716C849.843 854.716 848.163 855.136 846.651 855.976C845.163 856.816 843.987 857.98 843.123 859.468C842.283 860.932 841.863 862.576 841.863 864.4C841.863 866.224 842.283 867.88 843.123 869.368C843.987 870.832 845.163 871.984 846.651 872.824C848.163 873.664 849.843 874.084 851.691 874.084ZM892.222 851.8V877H889.27L874.15 858.208V877H870.55V851.8H873.502L888.622 870.592V851.8H892.222Z" fill="#4A5764"/>
<defs>
<filter id="filter0_f_40_785" x="250" y="70" width="1012" height="674.533" filterUnits="userSpaceOnUse" color-interpolation-filters="sRGB">
<feFlood flood-opacity="0" result="BackgroundImageFix"/>
<feBlend mode="normal" in="SourceGraphic" in2="BackgroundImageFix" result="shape"/>
<feGaussianBlur stdDeviation="13" result="effect1_foregroundBlur_40_785"/>
</filter>
</defs>
</svg>
